<svg id="svg" version="1.1" xmlns="http://www.w3.org/2000/svg" xmlns:xlink="http://www.w3.org/1999/xlink" width="400" height="400" viewBox="0, 0, 400,400"><g id="svgg"><path id="path0" d="M250.512 69.993 L 240.825 79.800 276.754 115.700 C 296.515 135.445,312.788 151.600,312.917 151.600 C 313.046 151.600,317.497 147.250,322.809 141.934 L 332.467 132.267 296.333 96.226 L 260.200 60.185 250.512 69.993 M226.900 106.426 C 199.032 110.050,177.110 140.888,182.923 168.291 C 189.626 199.893,223.733 219.577,252.093 208.212 C 258.930 205.472,261.375 203.707,268.851 196.116 C 277.130 187.709,279.027 184.186,280.598 174.300 C 280.910 172.337,280.918 172.340,284.197 175.597 L 287.013 178.394 295.204 170.196 L 303.396 161.997 284.098 142.699 L 264.800 123.401 249.901 138.300 L 235.002 153.199 242.099 160.297 L 249.197 167.394 255.439 161.197 L 261.681 155.000 261.487 159.000 C 260.195 185.610,230.222 192.965,214.214 170.600 C 200.298 151.160,215.216 128.462,238.653 133.416 L 239.906 133.681 240.361 130.341 C 240.611 128.503,241.352 123.076,242.008 118.281 C 243.509 107.301,243.514 107.763,241.900 107.245 C 238.254 106.075,232.162 105.742,226.900 106.426 M143.000 177.600 L 133.003 187.603 169.100 223.700 L 205.197 259.797 214.999 250.001 C 220.389 244.614,224.800 240.024,224.800 239.802 C 224.800 239.580,208.644 223.243,188.898 203.498 L 152.996 167.598 143.000 177.600 M115.602 216.834 C 101.947 219.913,98.316 222.442,76.800 243.861 L 60.200 260.386 96.274 296.493 L 132.349 332.600 145.117 320.000 C 152.139 313.070,159.106 305.870,160.599 304.000 C 162.092 302.130,164.343 299.520,165.601 298.200 C 172.486 290.980,176.800 279.455,176.800 268.281 C 176.800 237.756,144.232 210.377,115.602 216.834 M126.423 243.849 C 140.881 247.154,152.751 265.312,148.806 278.087 C 147.519 282.253,137.165 295.200,135.119 295.200 C 134.687 295.200,97.600 258.103,97.600 257.670 C 97.600 256.972,107.154 248.012,109.553 246.462 C 114.767 243.092,119.741 242.321,126.423 243.849 " stroke="none" fill="#5c2804" fill-rule="evenodd"></path><path id="path1" d="M162.529 63.300 L 125.259 125.400 63.230 162.599 C 29.113 183.059,1.200 199.889,1.200 200.000 C 1.200 200.110,17.895 210.219,38.300 222.463 L 75.400 244.726 83.800 236.450 C 92.917 227.467,95.490 225.318,100.740 222.297 C 107.691 218.297,116.869 215.600,123.529 215.600 L 125.400 215.600 125.400 170.500 L 125.400 125.400 159.800 125.319 L 194.200 125.237 196.200 123.065 C 208.069 110.173,225.707 103.521,239.974 106.555 C 243.869 107.384,243.678 106.758,242.608 115.200 C 242.092 119.270,241.611 123.189,241.538 123.909 L 241.407 125.218 251.950 125.235 C 262.065 125.251,262.529 125.219,263.372 124.426 C 264.474 123.391,264.730 123.395,265.865 124.461 C 266.666 125.214,267.271 125.326,270.690 125.361 L 274.600 125.400 274.662 129.360 L 274.723 133.319 289.060 147.660 L 303.397 162.001 295.103 170.294 L 286.810 178.588 284.016 175.816 C 282.480 174.291,281.155 173.124,281.072 173.222 C 280.989 173.320,280.615 174.972,280.241 176.893 C 279.430 181.061,278.373 184.256,276.976 186.755 C 275.978 188.541,276.042 188.500,279.332 185.290 L 282.714 181.988 286.057 183.240 C 298.066 187.734,304.371 190.082,312.800 193.195 C 315.110 194.049,319.610 195.726,322.800 196.922 C 325.990 198.118,328.653 198.960,328.718 198.794 C 328.829 198.510,326.885 193.094,320.395 175.600 C 311.316 151.127,311.767 152.464,312.496 152.185 C 312.858 152.046,311.460 150.405,308.408 147.392 L 303.770 142.810 289.209 134.093 L 274.648 125.376 265.905 110.788 L 257.161 96.200 248.889 87.905 L 240.617 79.610 242.661 77.505 L 244.704 75.400 222.452 38.313 C 210.214 17.915,200.110 1.220,200.000 1.213 C 199.890 1.206,183.028 29.145,162.529 63.300 M328.378 136.300 L 327.000 137.800 328.500 136.422 C 329.896 135.138,330.184 134.800,329.878 134.800 C 329.812 134.800,329.137 135.475,328.378 136.300 M324.975 139.700 L 323.800 141.000 325.100 139.825 C 325.815 139.179,326.400 138.594,326.400 138.525 C 326.400 138.216,326.070 138.488,324.975 139.700 M321.375 143.300 L 320.200 144.600 321.500 143.425 C 322.215 142.779,322.800 142.194,322.800 142.125 C 322.800 141.816,322.470 142.088,321.375 143.300 M317.775 146.900 L 316.600 148.200 317.900 147.025 C 318.615 146.379,319.200 145.794,319.200 145.725 C 319.200 145.416,318.870 145.688,317.775 146.900 M350.470 194.900 C 358.536 216.312,359.600 219.202,359.600 219.689 C 359.600 219.962,357.755 222.054,355.500 224.337 C 353.245 226.620,351.760 228.303,352.200 228.078 C 353.961 227.174,375.646 214.053,375.721 213.846 C 375.784 213.669,346.819 184.400,346.580 184.400 C 346.544 184.400,348.295 189.125,350.470 194.900 M268.400 209.000 C 271.805 212.410,274.680 215.200,274.790 215.200 C 274.900 215.200,272.205 212.410,268.800 209.000 C 265.395 205.590,262.520 202.800,262.410 202.800 C 262.300 202.800,264.995 205.590,268.400 209.000 M238.798 225.900 L 225.000 239.800 238.900 226.002 C 251.818 213.179,252.980 212.000,252.698 212.000 C 252.642 212.000,246.387 218.255,238.798 225.900 M274.800 228.797 L 274.800 242.192 282.296 249.696 L 289.792 257.200 282.213 264.787 C 276.073 270.933,274.631 272.585,274.617 273.487 C 274.603 274.432,274.435 274.598,273.508 274.585 C 272.653 274.573,271.613 275.375,268.722 278.278 L 265.030 281.986 266.393 283.393 C 268.287 285.347,268.248 285.375,271.615 279.712 L 274.630 274.642 292.815 263.731 C 302.817 257.730,311.180 252.745,311.400 252.653 C 311.620 252.561,303.475 244.142,293.300 233.944 L 274.800 215.401 274.800 228.797 M324.853 227.400 L 335.506 238.104 342.380 234.012 C 346.160 231.762,349.197 229.872,349.127 229.814 C 349.057 229.755,347.200 229.036,345.000 228.214 C 334.099 224.145,331.202 223.060,323.800 220.273 C 319.400 218.616,315.440 217.133,315.000 216.978 C 314.560 216.823,318.994 221.513,324.853 227.400 M116.303 243.633 C 111.070 244.867,96.370 256.636,98.087 258.218 C 98.369 258.478,104.630 262.303,112.000 266.717 L 125.400 274.743 130.900 283.937 C 136.973 294.089,136.671 293.421,135.700 294.553 C 135.315 295.001,137.160 293.148,139.800 290.434 C 146.314 283.738,149.200 279.246,149.200 275.802 L 149.200 274.812 137.300 274.706 L 125.400 274.600 125.314 259.210 C 125.234 244.857,125.180 243.801,124.514 243.538 C 123.518 243.145,118.109 243.208,116.303 243.633 M244.800 261.800 C 247.323 264.330,249.477 266.400,249.587 266.400 C 249.697 266.400,247.723 264.330,245.200 261.800 C 242.677 259.270,240.523 257.200,240.413 257.200 C 240.303 257.200,242.277 259.270,244.800 261.800 M176.605 275.133 C 176.492 275.426,176.397 276.056,176.394 276.533 C 176.375 279.317,170.765 292.646,168.460 295.384 C 168.097 295.815,168.790 295.338,170.000 294.325 C 174.972 290.161,182.508 286.445,189.000 284.958 C 195.637 283.437,208.000 284.214,208.000 286.151 C 208.000 287.160,205.218 309.205,205.009 309.850 C 204.904 310.175,204.276 310.147,202.745 309.750 C 195.753 307.936,187.046 310.471,181.615 315.902 C 163.155 334.362,192.162 368.318,213.993 353.805 C 220.421 349.531,224.524 342.075,225.067 333.678 L 225.292 330.200 219.541 335.900 C 216.378 339.035,213.610 341.600,213.390 341.600 C 213.171 341.600,210.024 338.629,206.398 334.998 L 199.805 328.396 213.901 314.300 L 227.998 300.204 237.755 309.955 C 247.481 319.675,247.514 319.703,248.116 318.753 C 250.195 315.469,254.000 309.067,254.000 308.852 C 254.000 308.712,246.386 300.984,237.079 291.679 L 220.159 274.762 198.484 274.681 C 180.746 274.615,176.772 274.697,176.605 275.133 M153.838 311.562 L 149.890 315.524 151.121 317.657 C 152.171 319.475,152.394 319.672,152.636 318.995 C 153.605 316.276,154.922 313.275,156.306 310.633 C 157.181 308.965,157.871 307.600,157.840 307.600 C 157.810 307.600,156.009 309.383,153.838 311.562 M190.845 383.879 C 191.370 384.751,193.597 388.465,195.793 392.133 C 197.989 395.800,199.879 398.797,199.993 398.793 C 200.107 398.789,201.237 397.034,202.505 394.893 C 203.773 392.752,205.980 389.044,207.410 386.652 C 209.948 382.407,209.984 382.310,208.905 382.541 C 203.375 383.723,198.273 383.718,191.245 382.523 L 189.891 382.293 190.845 383.879 " stroke="none" fill="#fb9304" fill-rule="evenodd"></path><path id="path2" d="M322.208 142.792 L 312.222 152.784 312.955 154.692 C 313.358 155.741,314.547 158.940,315.597 161.800 C 316.647 164.660,318.234 168.980,319.123 171.400 C 320.011 173.820,321.940 179.040,323.408 183.000 C 324.876 186.960,326.489 191.370,326.993 192.800 C 327.496 194.230,328.286 196.345,328.748 197.500 C 329.210 198.655,329.499 199.600,329.389 199.600 C 329.151 199.600,315.600 194.616,313.600 193.793 C 312.830 193.476,308.960 192.036,305.000 190.593 C 301.040 189.150,296.180 187.353,294.200 186.598 C 292.220 185.844,288.819 184.574,286.642 183.775 L 282.683 182.323 272.742 192.258 C 267.274 197.723,262.800 202.350,262.800 202.540 C 262.800 202.730,277.914 218.031,296.388 236.543 L 329.975 270.200 339.396 260.791 L 348.816 251.382 331.208 234.058 C 321.524 224.530,313.600 216.596,313.600 216.428 C 313.600 216.260,316.345 217.158,319.700 218.423 C 323.055 219.688,331.110 222.728,337.600 225.179 C 344.090 227.630,349.490 229.662,349.600 229.695 C 349.710 229.728,351.997 227.515,354.682 224.777 L 359.563 219.798 357.370 213.999 C 356.163 210.810,353.753 204.420,352.014 199.800 C 350.274 195.180,348.199 189.715,347.403 187.656 C 346.606 185.597,346.020 183.847,346.099 183.768 C 346.179 183.688,354.152 191.539,363.818 201.214 L 381.393 218.805 390.792 209.406 L 400.191 200.007 366.595 166.405 C 348.118 147.924,332.819 132.802,332.597 132.801 C 332.375 132.801,327.700 137.296,322.208 142.792 M229.032 235.968 L 205.466 259.537 238.956 293.268 C 257.376 311.821,272.572 327.045,272.724 327.100 C 272.877 327.155,283.890 316.311,297.198 303.002 L 321.395 278.803 313.400 270.800 L 305.406 262.798 290.521 277.679 L 275.637 292.559 271.318 288.385 C 268.943 286.089,266.496 283.684,265.879 283.041 L 264.759 281.871 277.073 269.533 L 289.387 257.195 281.997 249.797 L 274.606 242.398 262.401 254.599 C 255.688 261.310,250.013 266.800,249.791 266.800 C 249.272 266.800,240.400 257.916,240.400 257.396 C 240.400 257.180,246.834 250.569,254.697 242.703 L 268.994 228.402 261.001 220.401 C 256.605 216.000,252.915 212.400,252.802 212.400 C 252.690 212.400,241.993 223.006,229.032 235.968 M189.605 285.233 C 159.202 292.090,141.459 327.367,155.018 354.000 C 157.285 358.452,175.879 376.657,180.180 378.635 C 192.816 384.447,207.581 384.573,218.900 378.964 C 220.825 378.010,222.400 377.356,222.400 377.511 C 222.400 377.666,226.013 374.194,230.429 369.796 C 239.957 360.307,241.501 357.796,242.856 349.592 L 243.326 346.748 245.868 349.267 L 248.410 351.787 256.225 343.972 L 264.040 336.157 245.991 318.409 L 227.941 300.660 214.073 314.528 L 200.205 328.396 206.798 334.998 L 213.390 341.600 219.081 335.919 C 225.358 329.653,225.423 329.629,225.258 333.668 C 224.802 344.845,217.555 354.410,207.571 357.011 C 190.470 361.468,170.854 340.713,176.260 323.882 C 179.556 313.622,192.729 306.540,202.978 309.520 C 204.906 310.080,204.601 310.663,205.345 305.000 C 205.693 302.360,206.422 296.965,206.967 293.012 C 207.511 289.058,207.911 285.778,207.856 285.723 C 206.522 284.389,194.749 284.073,189.605 285.233 " stroke="none" fill="#fbe4af" fill-rule="evenodd"></path><path id="path3" d="M99.793 100.030 L -0.178 200.001 29.915 230.093 L 60.007 260.185 67.604 252.596 C 71.782 248.423,75.200 244.916,75.200 244.803 C 75.200 244.690,58.550 234.609,38.200 222.400 C 17.850 210.191,1.200 200.111,1.200 200.000 C 1.200 199.890,29.113 183.059,63.230 162.599 L 125.259 125.400 162.529 63.300 C 183.028 29.145,199.890 1.206,200.000 1.212 C 200.110 1.219,210.175 17.869,222.366 38.212 C 234.557 58.556,244.639 75.200,244.770 75.200 C 244.901 75.200,248.422 71.783,252.594 67.606 L 260.180 60.012 230.590 30.384 C 214.315 14.089,200.722 0.599,200.382 0.408 C 199.899 0.136,177.843 21.981,99.793 100.030 M258.171 97.900 C 258.496 98.505,262.339 104.936,266.710 112.191 L 274.659 125.383 287.829 133.301 C 295.073 137.655,301.540 141.501,302.200 141.848 C 302.860 142.194,293.141 132.200,280.601 119.638 C 268.062 107.077,257.752 96.800,257.691 96.800 C 257.630 96.800,257.846 97.295,258.171 97.900 M313.282 156.400 C 314.498 159.886,315.342 161.991,315.473 161.861 C 315.658 161.676,313.699 156.351,313.325 156.022 C 313.186 155.900,313.167 156.070,313.282 156.400 M317.429 167.600 C 317.576 168.150,317.864 168.870,318.067 169.200 C 318.325 169.617,318.357 169.495,318.171 168.800 C 318.024 168.250,317.736 167.530,317.533 167.200 C 317.275 166.783,317.243 166.905,317.429 167.600 M321.429 178.400 C 321.576 178.950,321.864 179.670,322.067 180.000 C 322.325 180.417,322.357 180.295,322.171 179.600 C 322.024 179.050,321.736 178.330,321.533 178.000 C 321.275 177.583,321.243 177.705,321.429 178.400 M278.791 185.900 L 275.400 189.400 278.900 186.009 C 280.825 184.144,282.400 182.569,282.400 182.509 C 282.400 182.218,281.941 182.649,278.791 185.900 M283.622 182.525 C 283.951 182.899,289.276 184.858,289.461 184.673 C 289.548 184.586,288.490 184.104,287.110 183.603 C 283.423 182.264,283.381 182.250,283.622 182.525 M346.658 185.598 C 346.800 186.147,347.250 187.317,347.659 188.198 C 348.067 189.079,348.285 189.351,348.142 188.802 C 348.000 188.253,347.550 187.083,347.141 186.202 C 346.733 185.321,346.515 185.049,346.658 185.598 M293.233 186.166 C 293.556 186.487,298.925 188.409,299.076 188.257 C 299.161 188.173,297.953 187.630,296.392 187.052 C 293.641 186.032,292.887 185.821,293.233 186.166 M362.121 199.822 L 376.040 213.844 364.753 220.622 C 358.545 224.350,353.001 227.644,352.433 227.943 C 351.865 228.241,353.200 226.617,355.400 224.334 C 358.771 220.835,358.645 220.935,354.600 224.969 C 351.960 227.602,349.710 229.769,349.600 229.785 C 349.490 229.801,346.274 231.679,342.454 233.958 L 335.508 238.103 324.977 227.577 C 319.184 221.787,314.524 216.923,314.620 216.767 C 314.717 216.611,314.526 216.381,314.198 216.254 C 313.869 216.128,313.600 216.185,313.600 216.380 C 313.600 216.734,348.168 250.914,348.712 251.097 C 348.870 251.150,356.286 243.902,365.192 234.989 L 381.383 218.784 364.792 202.292 C 350.058 187.645,349.759 187.369,362.121 199.822 M305.000 190.555 C 305.660 190.855,306.650 191.211,307.200 191.346 C 308.003 191.543,307.964 191.484,307.000 191.045 C 306.340 190.745,305.350 190.389,304.800 190.254 C 303.997 190.057,304.036 190.116,305.000 190.555 M314.600 194.155 C 315.260 194.455,316.250 194.811,316.800 194.946 C 317.603 195.143,317.564 195.084,316.600 194.645 C 315.940 194.345,314.950 193.989,314.400 193.854 C 313.597 193.657,313.636 193.716,314.600 194.155 M351.029 197.200 C 351.176 197.750,351.464 198.470,351.667 198.800 C 351.925 199.217,351.957 199.095,351.771 198.400 C 351.624 197.850,351.336 197.130,351.133 196.800 C 350.875 196.383,350.843 196.505,351.029 197.200 M328.673 198.200 C 328.930 199.487,329.104 199.831,329.363 199.567 C 329.453 199.475,329.280 198.860,328.979 198.200 L 328.433 197.000 328.673 198.200 M324.800 197.933 C 325.130 198.136,325.850 198.424,326.400 198.571 C 327.095 198.757,327.217 198.725,326.800 198.467 C 326.470 198.264,325.750 197.976,325.200 197.829 C 324.505 197.643,324.383 197.675,324.800 197.933 M354.254 205.600 C 354.389 206.150,354.745 207.140,355.045 207.800 C 355.484 208.764,355.543 208.803,355.346 208.000 C 355.211 207.450,354.855 206.460,354.555 205.800 C 354.116 204.836,354.057 204.797,354.254 205.600 M260.798 220.101 L 268.994 228.402 254.598 242.901 L 240.201 257.400 254.800 242.900 L 269.398 228.401 261.000 220.100 L 252.602 211.800 260.798 220.101 M357.829 215.200 C 357.976 215.750,358.264 216.470,358.467 216.800 C 358.725 217.217,358.757 217.095,358.571 216.400 C 358.424 215.850,358.136 215.130,357.933 214.800 C 357.675 214.383,357.643 214.505,357.829 215.200 M293.200 233.743 C 303.430 244.052,311.620 252.562,311.400 252.653 C 311.180 252.745,302.817 257.730,292.815 263.731 L 274.630 274.642 271.615 279.712 C 268.415 285.094,268.317 285.188,267.043 284.100 C 266.591 283.715,268.264 285.380,270.760 287.800 C 273.255 290.220,275.411 292.245,275.550 292.301 C 275.689 292.356,282.461 285.741,290.599 277.601 L 305.394 262.802 313.397 270.792 L 321.400 278.782 325.698 274.488 L 329.997 270.195 302.299 242.597 C 287.065 227.419,282.970 223.435,293.200 233.743 M322.000 219.533 C 322.330 219.736,323.050 220.024,323.600 220.171 C 324.295 220.357,324.417 220.325,324.000 220.067 C 323.670 219.864,322.950 219.576,322.400 219.429 C 321.705 219.243,321.583 219.275,322.000 219.533 M333.600 223.933 C 333.930 224.136,334.650 224.424,335.200 224.571 C 335.895 224.757,336.017 224.725,335.600 224.467 C 335.270 224.264,334.550 223.976,334.000 223.829 C 333.305 223.643,333.183 223.675,333.600 223.933 M343.200 227.533 C 343.530 227.736,344.250 228.024,344.800 228.171 C 345.495 228.357,345.617 228.325,345.200 228.067 C 344.870 227.864,344.150 227.576,343.600 227.429 C 342.905 227.243,342.783 227.275,343.200 227.533 M262.401 254.199 C 255.693 260.910,250.027 266.400,249.809 266.400 C 249.591 266.400,247.340 264.375,244.806 261.900 L 240.200 257.400 244.793 262.100 C 247.320 264.685,249.569 266.800,249.791 266.800 C 250.013 266.800,255.688 261.310,262.401 254.599 L 274.606 242.398 282.000 249.800 L 289.393 257.202 277.198 269.501 L 265.002 281.800 277.400 269.500 L 289.798 257.200 282.197 249.600 L 274.596 241.999 262.401 254.199 M116.784 276.920 C 133.905 294.104,135.010 295.134,135.684 294.524 C 136.722 293.585,136.876 293.927,130.900 283.937 L 125.400 274.743 113.000 267.302 C 106.180 263.209,100.150 259.593,99.600 259.265 C 99.050 258.937,106.783 266.882,116.784 276.920 M229.700 284.170 C 243.065 297.608,254.000 308.716,254.000 308.855 C 254.000 309.067,250.183 315.488,248.116 318.753 C 247.514 319.703,247.481 319.675,237.755 309.955 L 227.998 300.204 213.900 314.301 L 199.802 328.399 206.600 335.100 L 213.397 341.800 206.801 335.098 L 200.205 328.396 214.073 314.529 L 227.940 300.661 245.804 318.231 C 255.629 327.894,263.787 335.842,263.934 335.892 C 264.080 335.943,266.142 334.048,268.515 331.680 L 272.830 327.376 239.115 293.556 C 220.572 274.955,216.335 270.731,229.700 284.170 M195.900 284.295 C 197.055 284.376,198.945 284.376,200.100 284.295 C 201.255 284.214,200.310 284.148,198.000 284.148 C 195.690 284.148,194.745 284.214,195.900 284.295 M187.866 285.228 C 186.143 285.651,184.433 286.192,184.066 286.429 C 183.495 286.799,183.514 286.823,184.200 286.594 C 184.640 286.448,186.800 285.907,189.000 285.392 C 191.200 284.877,192.550 284.456,192.000 284.457 C 191.450 284.457,189.590 284.804,187.866 285.228 M203.800 284.800 C 205.492 285.231,206.944 285.231,205.600 284.800 C 205.050 284.624,204.150 284.483,203.600 284.487 C 202.702 284.494,202.722 284.526,203.800 284.800 M178.300 288.826 C 177.035 289.479,176.000 290.103,176.000 290.212 C 176.000 290.391,180.760 288.125,181.167 287.753 C 181.690 287.273,180.298 287.794,178.300 288.826 M171.985 292.829 L 170.600 294.058 172.100 292.981 C 173.426 292.030,173.857 291.600,173.485 291.600 C 173.422 291.600,172.747 292.153,171.985 292.829 M165.785 298.100 L 163.800 300.200 165.900 298.215 C 167.055 297.123,168.000 296.178,168.000 296.115 C 168.000 295.817,167.629 296.149,165.785 298.100 M205.701 302.600 C 205.705 303.480,205.787 303.793,205.883 303.295 C 205.979 302.798,205.975 302.078,205.875 301.695 C 205.775 301.313,205.696 301.720,205.701 302.600 M205.301 305.800 C 205.305 306.680,205.387 306.993,205.483 306.495 C 205.579 305.998,205.575 305.278,205.475 304.895 C 205.375 304.513,205.296 304.920,205.301 305.800 M204.768 308.900 C 204.649 309.760,204.710 310.250,204.912 310.048 C 205.105 309.855,205.198 309.181,205.119 308.549 C 204.987 307.491,204.959 307.519,204.768 308.900 M196.905 309.087 C 197.514 309.179,198.414 309.177,198.905 309.082 C 199.397 308.987,198.900 308.911,197.800 308.914 C 196.700 308.917,196.297 308.995,196.905 309.087 M188.100 310.986 C 186.945 311.523,186.000 312.066,186.000 312.192 C 186.000 312.318,186.568 312.127,187.262 311.768 C 187.957 311.409,189.172 310.877,189.962 310.586 C 190.753 310.295,191.130 310.045,190.800 310.032 C 190.470 310.019,189.255 310.448,188.100 310.986 M154.465 314.217 C 153.795 315.688,153.923 316.002,154.647 314.665 C 154.986 314.040,155.188 313.454,155.096 313.363 C 155.005 313.271,154.721 313.656,154.465 314.217 M181.200 315.800 C 180.228 316.790,179.523 317.600,179.633 317.600 C 179.743 317.600,180.628 316.790,181.600 315.800 C 182.572 314.810,183.277 314.000,183.167 314.000 C 183.057 314.000,182.172 314.810,181.200 315.800 M141.207 324.193 L 132.621 332.786 144.347 344.493 C 155.617 355.746,156.026 356.107,154.883 353.800 C 150.249 344.448,149.106 330.519,152.208 321.229 C 152.893 319.179,152.907 319.087,152.485 319.348 C 152.312 319.455,151.671 318.655,151.062 317.571 C 150.452 316.487,149.918 315.600,149.873 315.600 C 149.829 315.600,145.929 319.467,141.207 324.193 M175.856 324.884 C 175.721 325.388,175.627 326.160,175.646 326.600 C 175.665 327.040,175.845 326.698,176.046 325.840 C 176.436 324.178,176.270 323.340,175.856 324.884 M175.320 330.000 C 175.320 331.210,175.395 331.705,175.487 331.100 C 175.578 330.495,175.578 329.505,175.487 328.900 C 175.395 328.295,175.320 328.790,175.320 330.000 M218.995 336.100 L 213.400 341.800 219.100 336.205 C 222.235 333.128,224.800 330.563,224.800 330.505 C 224.800 330.219,224.192 330.805,218.995 336.100 M175.623 333.427 C 175.598 334.328,176.773 338.566,176.985 338.339 C 177.056 338.263,176.784 336.940,176.380 335.400 C 175.977 333.860,175.636 332.972,175.623 333.427 M223.326 341.693 C 222.846 343.064,222.513 344.247,222.587 344.321 C 222.790 344.524,224.447 339.942,224.315 339.545 C 224.252 339.355,223.807 340.321,223.326 341.693 M183.600 348.543 C 184.590 349.600,186.120 351.022,187.000 351.702 C 188.859 353.137,188.442 352.700,184.600 349.183 C 182.454 347.218,182.221 347.069,183.600 348.543 M242.852 349.618 C 242.320 352.837,241.140 356.494,239.694 359.400 C 238.726 361.348,238.827 361.274,243.547 356.608 L 248.394 351.816 245.909 349.308 C 244.542 347.929,243.399 346.800,243.370 346.800 C 243.341 346.800,243.108 348.068,242.852 349.618 M218.197 350.300 C 217.121 351.565,216.656 352.240,217.164 351.800 C 218.129 350.964,220.583 348.000,220.310 348.000 C 220.223 348.000,219.272 349.035,218.197 350.300 M214.344 353.527 C 213.544 354.117,212.554 354.832,212.144 355.115 C 211.735 355.398,212.169 355.227,213.109 354.736 C 214.050 354.244,215.113 353.518,215.471 353.121 C 216.348 352.152,216.079 352.249,214.344 353.527 M190.000 353.797 C 190.000 354.068,193.249 355.684,193.430 355.503 C 193.514 355.419,192.776 354.959,191.791 354.481 C 190.806 354.002,190.000 353.694,190.000 353.797 M200.912 357.495 C 201.964 357.577,203.584 357.576,204.512 357.492 C 205.440 357.408,204.580 357.341,202.600 357.342 C 200.620 357.343,199.860 357.412,200.912 357.495 M177.202 377.326 C 177.204 377.367,182.331 382.521,188.597 388.781 L 199.990 400.162 211.195 388.984 C 217.358 382.835,222.400 377.676,222.400 377.517 C 222.400 377.359,220.825 378.010,218.900 378.964 C 215.323 380.737,211.615 381.995,209.938 382.006 C 209.408 382.010,209.190 382.140,209.436 382.306 C 209.828 382.570,200.560 398.757,199.999 398.789 C 199.275 398.829,190.127 382.576,190.735 382.328 C 191.221 382.130,191.115 382.049,190.342 382.028 C 188.734 381.985,184.219 380.495,180.517 378.784 C 178.693 377.941,177.201 377.285,177.202 377.326 M194.700 383.082 C 195.195 383.178,196.005 383.178,196.500 383.082 C 196.995 382.987,196.590 382.909,195.600 382.909 C 194.610 382.909,194.205 382.987,194.700 383.082 M203.900 383.082 C 204.395 383.178,205.205 383.178,205.700 383.082 C 206.195 382.987,205.790 382.909,204.800 382.909 C 203.810 382.909,203.405 382.987,203.900 383.082 M198.691 383.489 C 199.401 383.577,200.661 383.579,201.491 383.492 C 202.321 383.405,201.740 383.333,200.200 383.331 C 198.660 383.329,197.981 383.400,198.691 383.489 " stroke="none" fill="#fbbb53" fill-rule="evenodd"></path><path id="path4" d="M250.197 70.100 L 240.600 79.800 250.300 70.203 C 259.314 61.285,260.180 60.400,259.897 60.400 C 259.840 60.400,255.475 64.765,250.197 70.100 M211.500 111.029 C 210.005 111.840,210.096 112.178,211.600 111.400 C 212.260 111.059,212.800 110.694,212.800 110.590 C 212.800 110.332,212.757 110.347,211.500 111.029 M241.293 123.600 C 241.293 124.370,241.375 124.685,241.476 124.300 C 241.576 123.915,241.576 123.285,241.476 122.900 C 241.375 122.515,241.293 122.830,241.293 123.600 M263.357 124.421 C 262.573 125.205,262.039 125.246,251.773 125.321 C 242.550 125.389,240.999 125.486,240.928 126.000 C 240.883 126.330,240.634 128.193,240.376 130.141 L 239.906 133.681 238.653 133.416 C 220.049 129.484,204.857 143.988,209.611 161.143 C 213.363 174.683,228.094 185.753,240.082 184.043 C 251.970 182.346,260.858 171.947,261.487 159.000 L 261.681 155.000 255.439 161.197 L 249.197 167.394 242.100 160.297 L 235.003 153.201 249.800 138.400 C 257.938 130.260,264.502 123.600,264.387 123.600 C 264.272 123.600,263.808 123.970,263.357 124.421 M194.765 124.607 C 194.234 125.138,189.888 125.225,159.779 125.307 L 125.400 125.400 125.400 170.400 L 125.400 215.400 122.800 215.629 C 120.664 215.818,121.057 215.873,125.000 215.938 C 152.432 216.391,177.483 242.437,176.734 269.726 C 176.650 272.767,176.631 275.108,176.691 274.927 C 176.751 274.747,186.430 274.642,198.200 274.693 C 209.970 274.744,219.600 274.655,219.600 274.494 C 219.600 274.333,200.115 254.716,176.301 230.901 L 133.002 187.600 143.003 177.599 L 153.004 167.598 189.004 203.699 L 225.004 239.800 238.900 225.800 L 252.795 211.800 261.096 220.100 L 269.397 228.399 255.000 242.800 L 240.604 257.200 245.262 261.857 L 249.919 266.515 262.359 254.053 L 274.800 241.592 274.800 228.491 L 274.800 215.391 268.500 209.119 L 262.200 202.848 259.121 204.762 C 227.140 224.633,182.225 197.903,182.225 159.000 C 182.225 146.697,186.907 133.725,194.303 125.538 C 195.658 124.039,195.977 123.394,194.765 124.607 M270.661 129.261 C 272.819 131.427,274.616 133.200,274.655 133.200 C 274.693 133.200,274.696 131.445,274.662 129.300 L 274.600 125.400 270.668 125.361 L 266.737 125.322 270.661 129.261 M280.844 172.900 C 280.942 172.955,282.367 174.260,284.011 175.800 L 287.000 178.600 284.211 175.700 C 282.677 174.105,281.252 172.800,281.044 172.800 C 280.836 172.800,280.747 172.845,280.844 172.900 M75.398 244.900 L 60.200 260.200 75.500 245.002 C 83.915 236.643,90.800 229.758,90.800 229.702 C 90.800 229.420,89.523 230.680,75.398 244.900 M125.313 259.071 L 125.400 274.600 137.272 274.706 C 148.151 274.803,149.159 274.870,149.325 275.506 C 149.425 275.888,149.528 274.573,149.554 272.584 C 149.705 260.808,137.815 245.947,126.513 243.788 L 125.227 243.542 125.313 259.071 M101.793 253.300 L 97.400 257.800 101.900 253.407 C 104.375 250.991,106.400 248.966,106.400 248.907 C 106.400 248.618,105.874 249.120,101.793 253.300 M273.500 273.633 C 272.574 274.647,272.617 274.882,273.700 274.728 C 274.278 274.646,274.646 274.278,274.728 273.700 C 274.881 272.618,274.448 272.595,273.500 273.633 M140.392 289.900 L 136.600 293.800 140.500 290.008 C 142.645 287.922,144.400 286.167,144.400 286.108 C 144.400 285.818,143.914 286.278,140.392 289.900 M141.000 324.000 C 136.384 328.620,132.697 332.400,132.807 332.400 C 132.917 332.400,136.784 328.620,141.400 324.000 C 146.016 319.380,149.703 315.600,149.593 315.600 C 149.483 315.600,145.616 319.380,141.000 324.000 " stroke="none" fill="#fb6b04" fill-rule="evenodd"></path></g></svg>